<svg xmlns="http://www.w3.org/2000/svg" viewBox="0 0 600 400" preserveAspectRatio="xMidYMid meet">
  <defs>
    <linearGradient id="g1" x1="0" x2="1">
      <stop offset="0" stop-color="#6f42c1"/>
      <stop offset="1" stop-color="#4f8ef7"/>
    </linearGradient>
    <filter id="f" x="-20%" y="-20%" width="140%" height="140%">
      <feDropShadow dx="0" dy="6" stdDeviation="12" flood-color="#4f8ef7" flood-opacity="0.12"/>
    </filter>
  </defs>

  <rect width="100%" height="100%" fill="transparent"/>

  <g transform="translate(40,30)">
    <rect x="0" y="0" width="520" height="160" rx="18" fill="url(#g1)" filter="url(#f)" />
    <g transform="translate(18,18)">
      <circle cx="56" cy="56" r="48" fill="#ffffff" opacity="0.12" />
      <g transform="translate(40,40)">
        <rect x="90" y="6" width="300" height="36" rx="10" fill="#ffffff" opacity="0.18" />
        <rect x="90" y="56" width="220" height="18" rx="9" fill="#ffffff" opacity="0.12" />
      </g>
      <g transform="translate(12,12)">
        <circle cx="24" cy="24" r="20" fill="#ffffff" opacity="0.95" />
        <text x="24" y="29" font-family="Inter, Arial" font-size="14" text-anchor="middle" fill="#6f42c1" font-weight="700">S</text>
      </g>
    </g>

    <g transform="translate(0,200)">
      <rect x="0" y="0" width="520" height="140" rx="16" fill="#ffffff"/>
      <g transform="translate(18,18)">
        <circle cx="36" cy="36" r="28" fill="#6f42c1"/>
        <rect x="84" y="18" width="320" height="16" rx="8" fill="#e6eefc"/>
        <rect x="84" y="44" width="220" height="12" rx="8" fill="#eef6ff"/>
      </g>
    </g>

    <text x="40" y="20" font-family="Inter, Arial" font-size="18" fill="#ffffff" font-weight="700">Strengths & Skills</text>
  </g>
</svg>
